<svg xmlns="http://www.w3.org/2000/svg" viewBox="0 0 64 64" fill="none">
  <defs>
    <linearGradient id="bg" x1="0" y1="0" x2="64" y2="64" gradientUnits="userSpaceOnUse">
      <stop offset="0%" stop-color="#00d4aa"/>
      <stop offset="100%" stop-color="#0088dd"/>
    </linearGradient>
    <linearGradient id="land" x1="10" y1="10" x2="50" y2="50" gradientUnits="userSpaceOnUse">
      <stop offset="0%" stop-color="#00b894"/>
      <stop offset="100%" stop-color="#0077bb"/>
    </linearGradient>
  </defs>
  <rect width="64" height="64" rx="14" fill="#0d1117"/>
  <!-- Ocean sphere -->
  <circle cx="28" cy="30" r="20" fill="url(#bg)"/>
  <!-- Continent shapes -->
  <path d="M18 14 C21 15 24 13 25 16 C26 19 22 20 19 18 C16 17 15 15 18 14Z" fill="url(#land)" opacity="0.7"/>
  <path d="M28 13 C31 12 35 14 34 18 C33 21 30 19 29 17 C28 15 27 14 28 13Z" fill="url(#land)" opacity="0.7"/>
  <path d="M12 25 C15 22 19 24 20 27 C21 30 18 34 15 33 C12 31 10 28 12 25Z" fill="url(#land)" opacity="0.7"/>
  <path d="M25 23 C29 22 34 25 35 29 C36 33 32 37 28 35 C24 33 22 27 25 23Z" fill="url(#land)" opacity="0.6"/>
  <path d="M15 38 C18 36 21 38 21 41 C21 43 18 45 15 43 C13 42 14 39 15 38Z" fill="url(#land)" opacity="0.6"/>
  <path d="M28 38 C31 37 34 39 33 42 C33 44 30 45 28 43 C26 42 27 39 28 38Z" fill="url(#land)" opacity="0.6"/>
  <!-- Globe shine -->
  <ellipse cx="20" cy="20" rx="8" ry="7" fill="#fff" opacity="0.12"/>
  <!-- Grid lines -->
  <ellipse cx="28" cy="30" rx="20" ry="7.5" stroke="#fff" stroke-width="0.7" fill="none" opacity="0.25"/>
  <ellipse cx="28" cy="30" rx="7.5" ry="20" stroke="#fff" stroke-width="0.7" fill="none" opacity="0.25"/>
  <circle cx="28" cy="30" r="20" stroke="#fff" stroke-width="0.8" fill="none" opacity="0.2"/>
  <!-- Map pin (pointing down) -->
  <g transform="translate(38, 32)">
    <path d="M7 0 C10.9 0 14 3.1 14 7 C14 12.2 7 19 7 19 C7 19 0 12.2 0 7 C0 3.1 3.1 0 7 0Z" fill="#ff4757"/>
    <circle cx="7" cy="7" r="3.5" fill="#fff"/>
  </g>
</svg>
