<svg xmlns="http://www.w3.org/2000/svg" viewBox="0 0 44 44" fill="none">
  <defs>
    <linearGradient id="g" x1="4" y1="4" x2="36" y2="36" gradientUnits="userSpaceOnUse">
      <stop offset="0%" stop-color="#00d4aa"/>
      <stop offset="100%" stop-color="#0088dd"/>
    </linearGradient>
    <linearGradient id="land" x1="8" y1="8" x2="32" y2="32" gradientUnits="userSpaceOnUse">
      <stop offset="0%" stop-color="#00b894"/>
      <stop offset="100%" stop-color="#0077bb"/>
    </linearGradient>
  </defs>
  <!-- Ocean sphere -->
  <circle cx="20" cy="20" r="17" fill="url(#g)"/>
  <!-- Continent shapes -->
  <path d="M14 8 C16 9 18 8 19 10 C20 12 17 13 15 12 C13 11 12 9 14 8Z" fill="url(#land)" opacity="0.7"/>
  <path d="M22 9 C24 8 27 10 26 13 C25 15 23 14 22 12 C21 11 21 10 22 9Z" fill="url(#land)" opacity="0.7"/>
  <path d="M10 17 C12 15 15 16 16 18 C17 20 15 23 13 22 C11 21 9 19 10 17Z" fill="url(#land)" opacity="0.7"/>
  <path d="M20 16 C23 15 27 17 28 20 C29 23 26 26 23 25 C20 24 18 20 20 16Z" fill="url(#land)" opacity="0.6"/>
  <path d="M12 26 C14 25 16 26 16 28 C16 30 14 31 12 30 C10 29 11 27 12 26Z" fill="url(#land)" opacity="0.6"/>
  <path d="M22 27 C24 26 26 27 26 29 C26 31 24 32 22 31 C20 30 21 28 22 27Z" fill="url(#land)" opacity="0.6"/>
  <!-- Globe shine -->
  <ellipse cx="14" cy="13" rx="6" ry="5" fill="#fff" opacity="0.15"/>
  <!-- Grid lines -->
  <ellipse cx="20" cy="20" rx="17" ry="6.5" stroke="#fff" stroke-width="0.6" fill="none" opacity="0.3"/>
  <ellipse cx="20" cy="20" rx="6.5" ry="17" stroke="#fff" stroke-width="0.6" fill="none" opacity="0.3"/>
  <!-- Globe outline -->
  <circle cx="20" cy="20" r="17" stroke="#fff" stroke-width="0.8" fill="none" opacity="0.3"/>
  <!-- Map pin (pointing down) -->
  <g transform="translate(28, 24)">
    <path d="M6 0 C9.3 0 12 2.7 12 6 C12 10.5 6 16 6 16 C6 16 0 10.5 0 6 C0 2.7 2.7 0 6 0Z" fill="#ff4757"/>
    <circle cx="6" cy="6" r="3" fill="#fff"/>
  </g>
</svg>
